<svg width="51" height="55" viewBox="0 0 51 55" fill="none" xmlns="http://www.w3.org/2000/svg">
<path d="M25.5 0L0 9.05771L3.88937 42.6422L25.5 54.5645L47.1106 42.6422L51 9.05771L25.5 0Z" fill="#DD0031"/>
<mask id="mask0_478_1501" style="mask-type:luminance" maskUnits="userSpaceOnUse" x="0" y="0" width="51" height="55">
<path d="M25.5 0L0 9.05771L3.88937 42.6422L25.5 54.5645L47.1106 42.6422L51 9.05771L25.5 0Z" fill="white"/>
</mask>
<g mask="url(#mask0_478_1501)">
<path fill-rule="evenodd" clip-rule="evenodd" d="M25.5 0V6.05666V6.02938V33.6663V54.5645L47.1106 42.6422L51 9.05771L25.5 0Z" fill="#C3002F"/>
</g>
<path d="M32.9816 25.8757L30.5352 25.3323L32.4379 28.0495V36.4731L38.9617 31.0385V21.7998L35.9716 22.8867L32.9816 25.8757Z" fill="white"/>
<path d="M17.7587 25.8757L20.2051 25.3323L18.3023 28.0495V36.4731L11.7786 31.0385V21.7998L14.7686 22.8867L17.7587 25.8757Z" fill="white"/>
<path fill-rule="evenodd" clip-rule="evenodd" d="M19.0918 28.5595L21.2601 25.2922L22.6153 26.1091H28.036L29.3912 25.2922L31.5595 28.5595V40.8119L29.9333 43.2624L28.036 45.1683H22.6153L20.718 43.2624L19.0918 40.8119V28.5595Z" fill="white"/>
<path d="M32.4395 41.6358L35.9731 38.1034V34.5709L32.4395 37.5599V41.6358Z" fill="white"/>
<path d="M18.3047 41.6358L14.771 38.1034V34.5709L18.3047 37.5599V41.6358Z" fill="white"/>
<path fill-rule="evenodd" clip-rule="evenodd" d="M21.8347 9.57202L19.6602 14.7348L23.1939 25.0604H24.8245V9.57202H21.8347ZM25.9118 9.57202V25.0604H27.8148L31.0767 14.7348L28.9021 9.57202H25.9118Z" fill="white"/>
<path d="M23.1963 25.0606L11.5079 20.713L9.87695 13.9198L19.9344 14.735L23.4681 25.0606H23.1963Z" fill="white"/>
<path d="M27.8194 25.0606L39.5077 20.713L41.1387 13.9198L30.8094 14.735L27.5475 25.0606H27.8194Z" fill="white"/>
<path d="M31.6235 13.9198L37.3317 13.3763L33.5262 9.57214H29.7207L31.6235 13.9198Z" fill="white"/>
<path d="M19.1187 13.9198L13.4104 13.3763L17.216 9.57214H21.0215L19.1187 13.9198Z" fill="white"/>
</svg>
