<svg width="148" height="36" viewBox="0 0 148 36" fill="none" xmlns="http://www.w3.org/2000/svg">
<path fill-rule="evenodd" clip-rule="evenodd" d="M5.76234 35.8234C6.24473 35.8234 6.46399 35.5603 6.46399 35.1217V24.0708H11.7263C15.8485 24.0708 18.0411 21.8343 18.0411 17.756V7.0559C18.0411 2.93373 15.8485 0.741089 11.7263 0.741089H1.20165C0.763117 0.741089 0.5 1.00421 0.5 1.44273V35.1217C0.5 35.5603 0.763117 35.8234 1.20165 35.8234H5.76234ZM10.3224 18.2822H6.46339V6.52967H10.3224C11.5065 6.52967 12.0766 7.14361 12.0766 8.28378V16.5281C12.0766 17.6244 11.5065 18.2822 10.3224 18.2822ZM28.3904 35.1217C28.3904 35.5603 28.1273 35.8234 27.6888 35.8234H23.1281C22.6896 35.8234 22.4264 35.5603 22.4264 35.1217V1.44273C22.4264 1.00421 22.6896 0.741089 23.1281 0.741089H34.1352C38.2573 0.741089 40.45 2.93373 40.45 7.0559V17.756C40.45 20.6941 39.3536 22.6237 37.2487 23.5446L40.2746 35.034C40.4061 35.5603 40.143 35.8234 39.6606 35.8234H35.0999C34.6614 35.8234 34.4421 35.6041 34.3544 35.2094L31.4163 24.0708H28.3904V35.1217ZM32.7313 18.2822H28.3898V6.52967H32.7313C33.8714 6.52967 34.4854 7.14361 34.4854 8.28378V16.5281C34.4854 17.6683 33.8714 18.2822 32.7313 18.2822ZM50.7986 35.1217C50.7986 35.5603 50.5355 35.8234 50.097 35.8234H45.5363C45.0539 35.8234 44.8347 35.5603 44.8347 35.1217V1.44273C44.8347 1.00421 45.0539 0.741089 45.5363 0.741089H50.097C50.5355 0.741089 50.7986 1.00421 50.7986 1.44273V35.1217ZM60.0965 35.8234C60.6665 35.8234 60.9735 35.5164 60.9735 34.9463V15.2125H61.2805L65.6219 35.034C65.7535 35.5603 66.0605 35.8234 66.5867 35.8234H68.7355C69.2617 35.8234 69.5687 35.5603 69.7002 35.034L74.0417 15.2125H74.3486V34.9463C74.3486 35.5164 74.6556 35.8234 75.2257 35.8234H79.304C79.8741 35.8234 80.1811 35.5164 80.1811 34.9463V1.61815C80.1811 1.04806 79.8741 0.741089 79.304 0.741089H73.5154C72.9892 0.741089 72.6822 1.00421 72.5507 1.53044L67.683 23.3692L62.8153 1.53044C62.6838 1.00421 62.3768 0.741089 61.8506 0.741089H56.062C55.4919 0.741089 55.1849 1.04806 55.1849 1.61815V34.9463C55.1849 35.5164 55.4919 35.8234 56.062 35.8234H60.0965ZM102.063 35.1217C102.063 35.5603 101.888 35.8234 101.361 35.8234H85.2234C84.8287 35.8234 84.5656 35.5603 84.5656 35.1217V1.44273C84.5656 1.00421 84.8287 0.741089 85.2234 0.741089H101.361C101.888 0.741089 102.063 1.00421 102.063 1.44273V5.82802C102.063 6.26655 101.888 6.57352 101.361 6.57352H90.3981V15.3441H98.7739C99.2125 15.3441 99.4756 15.6072 99.4756 16.0896V20.431C99.4756 20.9134 99.2125 21.1765 98.7739 21.1765H90.3981V30.0348H101.361C101.888 30.0348 102.063 30.2541 102.063 30.7365V35.1217Z" fill="white"/>
<path fill-rule="evenodd" clip-rule="evenodd" d="M112.413 35.1217C112.413 35.5603 112.194 35.8234 111.712 35.8234H107.151C106.712 35.8234 106.449 35.5603 106.449 35.1217V1.44273C106.449 1.00421 106.712 0.741089 107.151 0.741089H111.492C111.887 0.741089 112.15 0.9165 112.282 1.31118L118.947 19.9486H119.21V1.44273C119.21 1.00421 119.43 0.741089 119.912 0.741089H124.473C124.911 0.741089 125.174 1.00421 125.174 1.44273V35.1217C125.174 35.5603 124.911 35.8234 124.473 35.8234H120.131C119.737 35.8234 119.474 35.648 119.342 35.2533L112.632 16.5281H112.413V35.1217ZM147.977 29.5086C147.977 33.6307 145.74 35.8234 141.662 35.8234H135.874C131.751 35.8234 129.559 33.6307 129.559 29.5086V7.0559C129.559 2.93373 131.751 0.741089 135.874 0.741089H141.662C145.74 0.741089 147.977 2.93373 147.977 7.0559V11.6166C147.977 12.0551 147.714 12.3182 147.275 12.3182H142.89C142.408 12.3182 142.188 12.0551 142.188 11.6166V8.28378C142.188 7.14361 141.574 6.52967 140.434 6.52967H137.277C136.093 6.52967 135.523 7.14361 135.523 8.28378V28.2807C135.523 29.4647 136.137 30.0348 137.277 30.0348H140.434C141.574 30.0348 142.188 29.4647 142.188 28.2807V22.4044H139.908C139.426 22.4044 139.206 22.1413 139.206 21.7028V17.3175C139.206 16.8351 139.426 16.6158 139.908 16.6158H147.275C147.714 16.6158 147.977 16.8351 147.977 17.3175V29.5086Z" fill="#E0002A"/>
</svg>
